<?xml version="1.0" encoding="utf-8"?>
<!-- Generator: Adobe Illustrator 25.0.0, SVG Export Plug-In . SVG Version: 6.00 Build 0)  -->
<svg version="1.1" id="Layer_1" xmlns="http://www.w3.org/2000/svg" xmlns:xlink="http://www.w3.org/1999/xlink" x="0px" y="0px"
	 viewBox="0 0 187 55" style="enable-background:new 0 0 187 55;" xml:space="preserve">
<style type="text/css">
	.st0{fill:#13C670;}
	.st1{fill:url(#SVGID_1_);}
	.st2{fill:#206529;}
	.st3{fill:#195521;}
	.st4{fill:url(#SVGID_2_);}
	.st5{fill:#0E181E;}
	.st6{fill:url(#SVGID_3_);}
	.st7{fill:#FFFFFF;}
	.st8{fill:url(#SVGID_4_);}
</style>
<g>
	<polygon class="st0" points="5.6,53.1 35.2,5.3 35.2,39.7 	"/>
	
		<linearGradient id="SVGID_1_" gradientUnits="userSpaceOnUse" x1="-3271.8945" y1="471.2625" x2="-3294.3303" y2="513.5572" gradientTransform="matrix(-1 0 0 1 -3241.5046 -462)">
		<stop  offset="0" style="stop-color:#108C42"/>
		<stop  offset="1" style="stop-color:#0C843B"/>
	</linearGradient>
	<polygon class="st1" points="64.9,53.1 35.2,5.3 35.2,39.7 	"/>
	<polygon class="st2" points="64.9,53.1 35.2,39.7 35.2,44.7 	"/>
	<polygon class="st3" points="5.6,53.1 35.2,39.7 35.2,44.7 	"/>
</g>
<g>
	<path class="st5" d="M82.7,26.2h-5.8L76,30.8h-5.6l5.7-25.4h7.3l5.9,25.4h-5.7L82.7,26.2z M81.8,22.1l-2.1-10.7l-2.1,10.7H81.8z"/>
	<path class="st5" d="M107.1,5.5v25.4H102l-5.5-15.2v15.2h-5.2V5.5h5.1l5.5,15.2V5.5H107.1z"/>
	<path class="st5" d="M121.3,26.2h-5.8l-0.9,4.6H109l5.7-25.4h7.3l5.9,25.4h-5.7L121.3,26.2z M120.5,22.1l-2.1-10.7l-2.1,10.7H120.5
		z"/>
	<path class="st5" d="M142.9,26.6v4.2h-13V5.5h5.7v21.2H142.9z"/>
	<path class="st5" d="M155,5.5c3.6,0,5,1.7,5,4.4v16.6c0,2.8-1.4,4.4-5,4.4h-5.3c-3.6,0-5.1-1.7-5.1-4.4V9.8c0-2.7,1.4-4.4,5.1-4.4
		H155z M154.3,10.6c0-0.7-0.3-1-1-1h-1.9c-0.8,0-1.1,0.3-1.1,1v15c0,0.7,0.3,1,1.1,1h1.9c0.8,0,1-0.3,1-1V10.6z"/>
	<path class="st5" d="M172.7,13.7v-3.3c0-0.7-0.3-1-1.1-1H170c-0.8,0-1.1,0.3-1.1,1v15.6c0,0.8,0.3,1,1.1,1h1.6c0.8,0,1.1-0.2,1.1-1
		V21h-2v-3.8h7.7v9.3c0,2.7-1.4,4.4-5,4.4h-5.1c-3.6,0-5-1.7-5-4.4V9.8c0-2.7,1.4-4.4,5-4.4h5.1c3.6,0,5,1.7,5,4.4v3.8H172.7z"/>
</g>
<g>
	<path class="st5" d="M75.7,33.7v19.7h-4.4V33.7H75.7z"/>
	<path class="st5" d="M90.9,33.7v19.7h-4l-4.3-11.8v11.8h-4V33.7h4l4.2,11.8V33.7H90.9z"/>
	<path class="st5" d="M100.8,40.6v-3.1c0-0.6-0.2-0.8-0.8-0.8h-1.3c-0.6,0-0.8,0.2-0.8,0.8v12.1c0,0.6,0.2,0.8,0.8,0.8h1.3
		c0.6,0,0.8-0.2,0.8-0.8v-3h4.5V50c0,2.1-1.1,3.4-3.9,3.4h-4c-2.8,0-3.9-1.3-3.9-3.4V37.1c0-2.1,1.1-3.4,3.9-3.4h4
		c2.8,0,3.9,1.3,3.9,3.4v3.5H100.8z"/>
	<path class="st5" d="M118.3,50.1v3.2h-10.7V33.7h10.5V37H112v4.8h5.2V45H112v5.1H118.3z"/>
	<path class="st5" d="M128.3,33.7c2.8,0,3.9,1.3,3.9,3.4v6c0,2.1-1.1,3.4-3.9,3.4h-3.7v6.9h-4.4V33.7H128.3z M127.8,37.7
		c0-0.6-0.2-0.8-0.8-0.8h-2.4v6.3h2.4c0.6,0,0.8-0.2,0.8-0.8V37.7z"/>
	<path class="st5" d="M144.7,37h-3.6v16.4h-4.4V37h-3.6v-3.2h11.6V37z"/>
	<path class="st5" d="M150.8,33.7v19.7h-4.4V33.7H150.8z"/>
	<path class="st5" d="M166.5,33.7l-4.3,19.7h-5.4l-4.4-19.7h4.6l2.4,14.6l2.5-14.6H166.5z"/>
	<path class="st5" d="M178.9,50.1v3.2h-10.7V33.7h10.5V37h-6.1v4.8h5.2V45h-5.2v5.1H178.9z"/>
</g>
</svg>
